<svg xmlns="http://www.w3.org/2000/svg" viewBox="0 0 1034 1024"><path d="M474 597H560C572 597 583 593 591 585C599 577 603 567 603 555C603 543 599 532 591 524C583 516 572 512 560 512H474C462 512 451 516 443 524C435 532 431 543 431 555C431 567 435 577 443 585C451 593 462 597 474 597ZM474 469H732C745 469 755 465 763 457C771 449 775 439 775 427C775 415 771 404 763 396C755 388 745 384 732 384H474C462 384 451 388 443 396C435 404 431 415 431 427C431 439 435 449 443 457C451 465 462 469 474 469ZM474 341H732C745 341 755 337 763 329C771 321 775 311 775 299C775 287 771 276 763 268C755 260 745 256 732 256H474C462 256 451 260 443 268C435 276 431 287 431 299C431 311 435 321 443 329C451 337 462 341 474 341ZM345 768C321 768 301 760 284 743C267 726 258 706 258 683V171C258 147 267 127 284 110C301 94 321 85 345 85H862C885 85 906 94 923 110C939 127 948 147 948 171V683C948 706 939 726 923 743C906 760 885 768 862 768H345ZM172 939C149 939 128 930 111 914C95 897 86 877 86 853V299C86 287 90 276 99 268C107 260 117 256 129 256C141 256 152 260 160 268C168 276 172 287 172 299V853H732C745 853 755 857 763 866C771 874 775 884 775 896C775 908 771 918 763 926C755 935 745 939 732 939H172Z" fill="currentColor"/></svg>
